<?xml version="1.0" encoding="utf-8"?>
<svg id="svg2" viewBox="0 0 500 670" xmlns="http://www.w3.org/2000/svg">
  <desc>Source: openclipart.org/detail/209545</desc>
  <path d="M 472.514 62.832 C 472.514 53.647 465.059 46.206 455.889 46.206 L 122.397 46.206 C 113.226 46.206 105.771 53.647 105.771 62.832 L 105.771 204.639 L 139.023 204.639 L 139.023 79.458 L 439.262 79.458 L 439.262 431.117 L 379.467 431.117 C 370.291 431.117 362.842 438.553 362.842 447.744 L 362.842 507.51 L 139.023 507.51 L 139.023 383.365 L 105.771 383.365 L 105.771 524.134 C 105.771 533.32 113.226 540.76 122.397 540.76 L 379.467 540.76 C 384.06 540.76 388.216 538.89 391.219 535.887 L 391.235 535.871 L 467.626 459.512 L 467.642 459.496 C 470.65 456.492 472.515 452.336 472.515 447.744 L 472.515 62.832 L 472.514 62.832 Z" style="fill: rgb(117, 117, 117);"/>
  <path d="M 109.966 346.482 C 109.966 350.521 112.399 354.172 116.138 355.714 C 117.378 356.225 118.675 356.473 119.967 356.473 C 122.579 356.473 125.137 355.46 127.043 353.547 L 181.698 298.882 C 183.573 297.007 184.635 294.464 184.635 291.816 C 184.635 289.159 183.573 286.617 181.698 284.741 L 127.043 230.087 C 125.126 228.165 122.568 227.151 119.967 227.151 C 118.674 227.151 117.377 227.398 116.138 227.908 C 112.399 229.462 109.966 233.113 109.966 237.152 L 109.966 253.238 L 21.376 253.238 C 15.861 253.238 11.374 257.712 11.374 263.239 L 11.374 320.394 C 11.374 325.92 15.86 330.397 21.376 330.397 L 109.966 330.397 L 109.966 346.482 Z" style="fill: rgb(30, 30, 30);"/>
  <text style="fill: rgb(43, 39, 39); font-family: Arial, sans-serif; font-size: 106.9px; font-weight: 700; letter-spacing: -9.6px; text-transform: uppercase; white-space: pre;" x="192.07" y="239.637">Add</text>
  <text style="fill: rgb(43, 39, 39); font-family: Arial, sans-serif; font-size: 92.9px; font-weight: 700; letter-spacing: -9.6px; white-space: pre;" x="190.406" y="321.972">LOGO</text>
  <text style="fill: rgb(43, 39, 39); font-family: Arial, sans-serif; font-size: 98.8px; font-weight: 700; letter-spacing: -9.6px; white-space: pre;" x="190.406" y="409.296">HERE</text>
</svg>